<mxfile host="app.diagrams.net" modified="2022-03-18T19:01:31.884Z" agent="5.0 (Windows NT 10.0; Win64; x64) AppleWebKit/537.36 (KHTML, like Gecko) Chrome/99.0.4844.51 Safari/537.36" etag="7WJsGswln_cEVIsg-uj9" version="17.1.3" type="github">
  <diagram id="Z3be7JwXrgW7ED-cIbiG" name="Page-1">
    <mxGraphModel dx="782" dy="1544" grid="1" gridSize="10" guides="1" tooltips="1" connect="1" arrows="1" fold="1" page="1" pageScale="1" pageWidth="850" pageHeight="1100" math="0" shadow="0">
      <root>
        <mxCell id="0" />
        <mxCell id="1" parent="0" />
        <mxCell id="STEFuzoqKqJzx2Hp0G6X-3" value="&lt;h1&gt;Process Design&lt;/h1&gt;" style="text;html=1;strokeColor=none;fillColor=none;spacing=5;spacingTop=-20;whiteSpace=wrap;overflow=hidden;rounded=0;" vertex="1" parent="1">
          <mxGeometry width="190" height="40" as="geometry" />
        </mxCell>
        <mxCell id="STEFuzoqKqJzx2Hp0G6X-7" value="Photo Ingestion" style="rounded=0;whiteSpace=wrap;html=1;" vertex="1" parent="1">
          <mxGeometry x="240" y="80" width="120" height="30" as="geometry" />
        </mxCell>
        <mxCell id="STEFuzoqKqJzx2Hp0G6X-8" value="Photo Storage" style="rounded=0;whiteSpace=wrap;html=1;" vertex="1" parent="1">
          <mxGeometry x="40" y="140" width="120" height="30" as="geometry" />
        </mxCell>
        <mxCell id="STEFuzoqKqJzx2Hp0G6X-9" value="Display" style="rounded=0;whiteSpace=wrap;html=1;" vertex="1" parent="1">
          <mxGeometry x="330" y="200" width="120" height="30" as="geometry" />
        </mxCell>
        <mxCell id="STEFuzoqKqJzx2Hp0G6X-10" value="Comments" style="rounded=0;whiteSpace=wrap;html=1;" vertex="1" parent="1">
          <mxGeometry x="170" y="140" width="120" height="30" as="geometry" />
        </mxCell>
        <mxCell id="STEFuzoqKqJzx2Hp0G6X-11" value="Comments Ingestion" style="rounded=0;whiteSpace=wrap;html=1;" vertex="1" parent="1">
          <mxGeometry x="400" y="80" width="120" height="30" as="geometry" />
        </mxCell>
        <mxCell id="STEFuzoqKqJzx2Hp0G6X-12" value="Relationship" style="rounded=0;whiteSpace=wrap;html=1;" vertex="1" parent="1">
          <mxGeometry x="300" y="140" width="120" height="30" as="geometry" />
        </mxCell>
        <mxCell id="STEFuzoqKqJzx2Hp0G6X-13" value="&lt;h1&gt;Data Model&lt;/h1&gt;" style="text;html=1;strokeColor=none;fillColor=none;spacing=5;spacingTop=-20;whiteSpace=wrap;overflow=hidden;rounded=0;" vertex="1" parent="1">
          <mxGeometry y="280" width="190" height="40" as="geometry" />
        </mxCell>
        <mxCell id="STEFuzoqKqJzx2Hp0G6X-14" value="Photo&lt;br&gt;id: serial&lt;br&gt;user: fk id User&lt;br&gt;location: long/lat&lt;br&gt;caption:&lt;br&gt;description:" style="rounded=0;whiteSpace=wrap;html=1;" vertex="1" parent="1">
          <mxGeometry x="40" y="360" width="120" height="50" as="geometry" />
        </mxCell>
        <mxCell id="STEFuzoqKqJzx2Hp0G6X-15" value="User&lt;br&gt;id: serial&lt;br&gt;email: varchar&lt;br&gt;personal details:&amp;nbsp;&lt;br&gt;" style="rounded=0;whiteSpace=wrap;html=1;" vertex="1" parent="1">
          <mxGeometry x="200" y="360" width="120" height="50" as="geometry" />
        </mxCell>
        <mxCell id="STEFuzoqKqJzx2Hp0G6X-16" value="Relationship&lt;br&gt;id: serial&lt;br&gt;type: follow/friend/family&lt;br&gt;from: fk User id&lt;br&gt;to: fk User id" style="rounded=0;whiteSpace=wrap;html=1;" vertex="1" parent="1">
          <mxGeometry x="360" y="360" width="120" height="90" as="geometry" />
        </mxCell>
      </root>
    </mxGraphModel>
  </diagram>
</mxfile>
